<svg width="1017" height="418" viewBox="0 0 1017 418" fill="none" xmlns="http://www.w3.org/2000/svg">
<rect width="1017" height="418" fill="white"/>
<path d="M78.6612 338.276C78.5476 337.13 78.0599 336.24 77.1982 335.605C76.3364 334.971 75.1669 334.653 73.6896 334.653C72.6858 334.653 71.8383 334.795 71.147 335.08C70.4557 335.354 69.9254 335.738 69.5561 336.23C69.1963 336.723 69.0163 337.281 69.0163 337.906C68.9974 338.427 69.1063 338.882 69.343 339.27C69.5893 339.658 69.9254 339.994 70.3516 340.278C70.7777 340.553 71.2701 340.795 71.8288 341.003C72.3875 341.202 72.9841 341.372 73.6186 341.514L76.2322 342.139C77.5012 342.423 78.666 342.802 79.7266 343.276C80.7872 343.749 81.7057 344.331 82.4822 345.023C83.2588 345.714 83.8601 346.528 84.2862 347.466C84.7218 348.403 84.9444 349.478 84.9538 350.69C84.9444 352.471 84.4898 354.014 83.5902 355.321C82.7 356.618 81.4122 357.627 79.7266 358.347C78.0504 359.057 76.0286 359.412 73.6612 359.412C71.3127 359.412 69.2673 359.052 67.5249 358.332C65.7919 357.613 64.4377 356.547 63.4624 355.136C62.4964 353.716 61.9898 351.959 61.9425 349.866H67.8942C67.9605 350.842 68.2398 351.656 68.7322 352.31C69.2341 352.954 69.9018 353.441 70.7351 353.773C71.5779 354.095 72.5296 354.256 73.5902 354.256C74.6319 354.256 75.5362 354.104 76.3033 353.801C77.0798 353.498 77.6811 353.077 78.1072 352.537C78.5334 351.997 78.7464 351.377 78.7464 350.676C78.7464 350.023 78.5523 349.473 78.1641 349.028C77.7853 348.583 77.2266 348.205 76.4879 347.892C75.7588 347.58 74.8639 347.295 73.8033 347.04L70.6357 346.244C68.183 345.648 66.2464 344.715 64.826 343.446C63.4055 342.177 62.7 340.468 62.7095 338.318C62.7 336.557 63.1688 335.018 64.1158 333.702C65.0722 332.385 66.3838 331.358 68.0504 330.619C69.7171 329.881 71.611 329.511 73.7322 329.511C75.8913 329.511 77.7758 329.881 79.3857 330.619C81.005 331.358 82.2644 332.385 83.1641 333.702C84.0637 335.018 84.5277 336.543 84.5561 338.276H78.6612ZM88.9773 367.182V337.182H94.9432V340.847H95.2131C95.4782 340.259 95.8617 339.663 96.3636 339.057C96.875 338.441 97.5379 337.93 98.3523 337.523C99.1761 337.106 100.199 336.898 101.42 336.898C103.011 336.898 104.479 337.314 105.824 338.148C107.169 338.972 108.243 340.217 109.048 341.884C109.853 343.541 110.256 345.619 110.256 348.119C110.256 350.553 109.863 352.608 109.077 354.284C108.3 355.951 107.24 357.215 105.895 358.077C104.56 358.929 103.063 359.355 101.406 359.355C100.232 359.355 99.233 359.161 98.4091 358.773C97.5947 358.384 96.9271 357.897 96.4062 357.31C95.8854 356.713 95.4877 356.112 95.2131 355.506H95.0284V367.182H88.9773ZM94.9006 348.091C94.9006 349.388 95.0805 350.52 95.4403 351.486C95.8002 352.452 96.321 353.205 97.0028 353.744C97.6847 354.275 98.5133 354.54 99.4886 354.54C100.473 354.54 101.307 354.27 101.989 353.73C102.67 353.181 103.187 352.423 103.537 351.457C103.897 350.482 104.077 349.36 104.077 348.091C104.077 346.831 103.902 345.723 103.551 344.767C103.201 343.811 102.685 343.062 102.003 342.523C101.321 341.983 100.483 341.713 99.4886 341.713C98.5038 341.713 97.6705 341.973 96.9886 342.494C96.3163 343.015 95.8002 343.754 95.4403 344.71C95.0805 345.667 94.9006 346.794 94.9006 348.091ZM114.29 359V337.182H120.156V340.989H120.384C120.781 339.634 121.449 338.612 122.386 337.92C123.324 337.22 124.403 336.869 125.625 336.869C125.928 336.869 126.255 336.888 126.605 336.926C126.955 336.964 127.263 337.016 127.528 337.082V342.452C127.244 342.366 126.851 342.291 126.349 342.224C125.848 342.158 125.388 342.125 124.972 342.125C124.081 342.125 123.286 342.319 122.585 342.707C121.894 343.086 121.345 343.616 120.938 344.298C120.54 344.98 120.341 345.766 120.341 346.656V359H114.29ZM130.657 359V337.182H136.708V359H130.657ZM133.697 334.369C132.797 334.369 132.025 334.071 131.381 333.474C130.747 332.868 130.43 332.144 130.43 331.301C130.43 330.468 130.747 329.753 131.381 329.156C132.025 328.55 132.797 328.247 133.697 328.247C134.596 328.247 135.363 328.55 135.998 329.156C136.642 329.753 136.964 330.468 136.964 331.301C136.964 332.144 136.642 332.868 135.998 333.474C135.363 334.071 134.596 334.369 133.697 334.369ZM147.607 346.386V359H141.555V337.182H147.322V341.031H147.578C148.061 339.762 148.871 338.759 150.007 338.02C151.143 337.272 152.521 336.898 154.141 336.898C155.656 336.898 156.977 337.229 158.104 337.892C159.231 338.555 160.107 339.502 160.732 340.733C161.357 341.955 161.669 343.413 161.669 345.108V359H155.618V346.188C155.627 344.852 155.286 343.811 154.595 343.062C153.904 342.305 152.952 341.926 151.74 341.926C150.926 341.926 150.206 342.101 149.581 342.452C148.965 342.802 148.482 343.313 148.132 343.986C147.791 344.649 147.616 345.449 147.607 346.386ZM176.268 367.636C174.308 367.636 172.627 367.366 171.225 366.827C169.833 366.296 168.725 365.572 167.901 364.653C167.077 363.735 166.542 362.703 166.296 361.557L171.893 360.804C172.063 361.24 172.333 361.647 172.702 362.026C173.072 362.404 173.559 362.707 174.165 362.935C174.781 363.171 175.529 363.29 176.41 363.29C177.726 363.29 178.81 362.968 179.663 362.324C180.524 361.689 180.955 360.624 180.955 359.128V355.136H180.7C180.434 355.742 180.037 356.315 179.506 356.855C178.976 357.395 178.294 357.835 177.461 358.176C176.628 358.517 175.633 358.688 174.478 358.688C172.84 358.688 171.348 358.309 170.004 357.551C168.668 356.784 167.603 355.615 166.808 354.043C166.022 352.461 165.629 350.463 165.629 348.048C165.629 345.577 166.031 343.512 166.836 341.855C167.641 340.198 168.711 338.957 170.046 338.134C171.391 337.31 172.863 336.898 174.464 336.898C175.685 336.898 176.708 337.106 177.532 337.523C178.356 337.93 179.019 338.441 179.521 339.057C180.032 339.663 180.425 340.259 180.7 340.847H180.927V337.182H186.935V359.213C186.935 361.069 186.481 362.622 185.572 363.872C184.663 365.122 183.403 366.06 181.793 366.685C180.193 367.319 178.351 367.636 176.268 367.636ZM176.396 354.142C177.371 354.142 178.195 353.901 178.867 353.418C179.549 352.925 180.07 352.224 180.43 351.315C180.799 350.397 180.984 349.298 180.984 348.02C180.984 346.741 180.804 345.634 180.444 344.696C180.084 343.749 179.563 343.015 178.881 342.494C178.2 341.973 177.371 341.713 176.396 341.713C175.401 341.713 174.563 341.983 173.881 342.523C173.2 343.053 172.683 343.792 172.333 344.739C171.983 345.686 171.808 346.779 171.808 348.02C171.808 349.279 171.983 350.368 172.333 351.287C172.693 352.196 173.209 352.902 173.881 353.403C174.563 353.896 175.401 354.142 176.396 354.142ZM201.122 359V329.909H212.77C214.91 329.909 216.695 330.226 218.125 330.861C219.555 331.495 220.63 332.376 221.349 333.503C222.069 334.62 222.429 335.908 222.429 337.366C222.429 338.503 222.202 339.502 221.747 340.364C221.293 341.216 220.668 341.917 219.872 342.466C219.086 343.006 218.187 343.389 217.173 343.616V343.901C218.281 343.948 219.318 344.26 220.284 344.838C221.259 345.416 222.05 346.225 222.656 347.267C223.262 348.299 223.565 349.53 223.565 350.96C223.565 352.504 223.182 353.882 222.415 355.094C221.657 356.296 220.535 357.248 219.048 357.949C217.562 358.65 215.729 359 213.551 359H201.122ZM207.273 353.972H212.287C214.001 353.972 215.251 353.645 216.037 352.991C216.823 352.329 217.216 351.448 217.216 350.349C217.216 349.545 217.022 348.834 216.634 348.219C216.245 347.603 215.691 347.12 214.972 346.77C214.261 346.42 213.414 346.244 212.429 346.244H207.273V353.972ZM207.273 342.082H211.832C212.675 342.082 213.423 341.936 214.077 341.642C214.74 341.339 215.26 340.913 215.639 340.364C216.027 339.814 216.222 339.156 216.222 338.389C216.222 337.338 215.848 336.491 215.099 335.847C214.361 335.203 213.31 334.881 211.946 334.881H207.273V342.082ZM237.312 359.426C235.105 359.426 233.197 358.957 231.587 358.02C229.987 357.073 228.751 355.757 227.88 354.071C227.009 352.376 226.573 350.411 226.573 348.176C226.573 345.922 227.009 343.953 227.88 342.267C228.751 340.572 229.987 339.256 231.587 338.318C233.197 337.371 235.105 336.898 237.312 336.898C239.518 336.898 241.422 337.371 243.022 338.318C244.632 339.256 245.872 340.572 246.744 342.267C247.615 343.953 248.05 345.922 248.05 348.176C248.05 350.411 247.615 352.376 246.744 354.071C245.872 355.757 244.632 357.073 243.022 358.02C241.422 358.957 239.518 359.426 237.312 359.426ZM237.34 354.739C238.344 354.739 239.182 354.455 239.854 353.886C240.527 353.309 241.033 352.523 241.374 351.528C241.725 350.534 241.9 349.402 241.9 348.134C241.9 346.865 241.725 345.733 241.374 344.739C241.033 343.744 240.527 342.958 239.854 342.381C239.182 341.803 238.344 341.514 237.34 341.514C236.327 341.514 235.475 341.803 234.783 342.381C234.102 342.958 233.585 343.744 233.235 344.739C232.894 345.733 232.724 346.865 232.724 348.134C232.724 349.402 232.894 350.534 233.235 351.528C233.585 352.523 234.102 353.309 234.783 353.886C235.475 354.455 236.327 354.739 237.34 354.739ZM261.843 359.426C259.637 359.426 257.728 358.957 256.119 358.02C254.518 357.073 253.282 355.757 252.411 354.071C251.54 352.376 251.104 350.411 251.104 348.176C251.104 345.922 251.54 343.953 252.411 342.267C253.282 340.572 254.518 339.256 256.119 338.318C257.728 337.371 259.637 336.898 261.843 336.898C264.049 336.898 265.953 337.371 267.553 338.318C269.163 339.256 270.404 340.572 271.275 342.267C272.146 343.953 272.582 345.922 272.582 348.176C272.582 350.411 272.146 352.376 271.275 354.071C270.404 355.757 269.163 357.073 267.553 358.02C265.953 358.957 264.049 359.426 261.843 359.426ZM261.871 354.739C262.875 354.739 263.713 354.455 264.386 353.886C265.058 353.309 265.565 352.523 265.906 351.528C266.256 350.534 266.431 349.402 266.431 348.134C266.431 346.865 266.256 345.733 265.906 344.739C265.565 343.744 265.058 342.958 264.386 342.381C263.713 341.803 262.875 341.514 261.871 341.514C260.858 341.514 260.006 341.803 259.315 342.381C258.633 342.958 258.117 343.744 257.766 344.739C257.425 345.733 257.255 346.865 257.255 348.134C257.255 349.402 257.425 350.534 257.766 351.528C258.117 352.523 258.633 353.309 259.315 353.886C260.006 354.455 260.858 354.739 261.871 354.739ZM288.121 337.182V341.727H274.982V337.182H288.121ZM277.965 331.955H284.016V352.295C284.016 352.854 284.102 353.29 284.272 353.602C284.442 353.905 284.679 354.118 284.982 354.241C285.295 354.365 285.655 354.426 286.062 354.426C286.346 354.426 286.63 354.402 286.914 354.355C287.198 354.298 287.416 354.256 287.567 354.227L288.519 358.73C288.216 358.825 287.79 358.934 287.241 359.057C286.692 359.189 286.024 359.27 285.238 359.298C283.78 359.355 282.501 359.161 281.403 358.716C280.314 358.271 279.466 357.58 278.86 356.642C278.254 355.705 277.956 354.521 277.965 353.091V331.955Z" fill="#8BC34A"/>
<g clip-path="url(#clip0_201_6)">
<path d="M298.896 173.34C299.324 147.045 293.372 115.777 280.971 79.0901L271.249 50.3209L258.042 77.677C257.335 79.1395 256.529 80.5712 255.686 81.9844C233.991 63.4466 205.841 52.1722 175 52.1722C106.51 52.1722 50.9921 107.427 50.9921 175.592C50.9921 243.757 106.51 299.013 175 299.013C243.49 299.013 299.008 243.757 299.008 175.592C299.008 174.833 298.909 174.099 298.896 173.34Z" fill="#8BC34A"/>
<path d="M270.393 228.404C251.029 254.952 216.753 256.377 184.493 255.816H142.448H130.432C157.887 245.985 174.225 243.646 190.91 234.834C222.334 218.388 253.398 182.405 259.865 144.972C247.898 180.986 211.632 211.927 178.584 224.51C155.94 233.106 115.042 241.449 115.042 241.449L113.387 240.555C85.5469 226.614 84.7036 164.571 135.317 144.54C157.478 135.759 178.677 140.584 202.617 134.709C228.175 128.464 257.738 108.742 269.767 83.0273C283.234 124.169 299.442 188.589 270.393 228.404ZM123.338 264.733C121.59 266.893 118.917 268.158 116.127 268.158C111.024 268.158 106.858 263.98 106.858 258.901C106.858 253.822 111.055 249.645 116.127 249.645C118.242 249.645 120.325 250.373 121.962 251.718C125.93 254.921 126.55 260.783 123.338 264.733Z" fill="white"/>
</g>
<path d="M438.958 359H428.646V329.909H439.043C441.969 329.909 444.488 330.491 446.6 331.656C448.712 332.812 450.336 334.473 451.472 336.642C452.618 338.811 453.191 341.405 453.191 344.426C453.191 347.456 452.618 350.061 451.472 352.239C450.336 354.417 448.702 356.088 446.572 357.253C444.451 358.418 441.913 359 438.958 359ZM434.796 353.73H438.702C440.521 353.73 442.05 353.408 443.29 352.764C444.54 352.111 445.478 351.102 446.103 349.739C446.737 348.366 447.055 346.595 447.055 344.426C447.055 342.277 446.737 340.52 446.103 339.156C445.478 337.793 444.545 336.789 443.305 336.145C442.064 335.501 440.535 335.179 438.717 335.179H434.796V353.73ZM467.491 359.426C465.285 359.426 463.377 358.957 461.767 358.02C460.167 357.073 458.931 355.757 458.06 354.071C457.188 352.376 456.753 350.411 456.753 348.176C456.753 345.922 457.188 343.953 458.06 342.267C458.931 340.572 460.167 339.256 461.767 338.318C463.377 337.371 465.285 336.898 467.491 336.898C469.698 336.898 471.601 337.371 473.202 338.318C474.812 339.256 476.052 340.572 476.923 342.267C477.795 343.953 478.23 345.922 478.23 348.176C478.23 350.411 477.795 352.376 476.923 354.071C476.052 355.757 474.812 357.073 473.202 358.02C471.601 358.957 469.698 359.426 467.491 359.426ZM467.52 354.739C468.524 354.739 469.362 354.455 470.034 353.886C470.706 353.309 471.213 352.523 471.554 351.528C471.904 350.534 472.08 349.402 472.08 348.134C472.08 346.865 471.904 345.733 471.554 344.739C471.213 343.744 470.706 342.958 470.034 342.381C469.362 341.803 468.524 341.514 467.52 341.514C466.507 341.514 465.654 341.803 464.963 342.381C464.281 342.958 463.765 343.744 463.415 344.739C463.074 345.733 462.903 346.865 462.903 348.134C462.903 349.402 463.074 350.534 463.415 351.528C463.765 352.523 464.281 353.309 464.963 353.886C465.654 354.455 466.507 354.739 467.52 354.739ZM492.023 359.426C489.788 359.426 487.866 358.953 486.256 358.006C484.655 357.049 483.424 355.723 482.562 354.028C481.71 352.333 481.284 350.383 481.284 348.176C481.284 345.941 481.715 343.981 482.577 342.295C483.448 340.6 484.684 339.279 486.284 338.332C487.884 337.376 489.788 336.898 491.994 336.898C493.898 336.898 495.564 337.243 496.994 337.935C498.424 338.626 499.556 339.597 500.389 340.847C501.223 342.097 501.682 343.564 501.767 345.25H496.057C495.896 344.161 495.47 343.285 494.778 342.622C494.097 341.95 493.202 341.614 492.094 341.614C491.156 341.614 490.337 341.869 489.636 342.381C488.945 342.883 488.405 343.616 488.017 344.582C487.629 345.548 487.435 346.718 487.435 348.091C487.435 349.483 487.624 350.667 488.003 351.642C488.391 352.617 488.936 353.361 489.636 353.872C490.337 354.384 491.156 354.639 492.094 354.639C492.785 354.639 493.405 354.497 493.955 354.213C494.513 353.929 494.973 353.517 495.332 352.977C495.702 352.428 495.943 351.77 496.057 351.003H501.767C501.672 352.67 501.218 354.137 500.403 355.406C499.598 356.666 498.486 357.651 497.065 358.361C495.645 359.071 493.964 359.426 492.023 359.426ZM511.124 352.722L511.138 345.463H512.019L519.008 337.182H525.954L516.565 348.148H515.13L511.124 352.722ZM505.641 359V329.909H511.692V359H505.641ZM519.278 359L512.857 349.497L516.891 345.222L526.366 359H519.278ZM537.967 359.426C535.723 359.426 533.791 358.972 532.172 358.062C530.562 357.144 529.321 355.847 528.45 354.17C527.579 352.485 527.143 350.491 527.143 348.19C527.143 345.946 527.579 343.976 528.45 342.281C529.321 340.586 530.548 339.265 532.129 338.318C533.72 337.371 535.586 336.898 537.726 336.898C539.165 336.898 540.505 337.13 541.746 337.594C542.996 338.048 544.085 338.735 545.013 339.653C545.95 340.572 546.679 341.727 547.2 343.119C547.721 344.502 547.982 346.121 547.982 347.977V349.639H529.558V345.889H542.286C542.286 345.018 542.096 344.246 541.717 343.574C541.339 342.902 540.813 342.376 540.141 341.997C539.478 341.609 538.706 341.415 537.825 341.415C536.907 341.415 536.092 341.628 535.382 342.054C534.681 342.471 534.132 343.034 533.734 343.744C533.337 344.445 533.133 345.226 533.124 346.088V349.653C533.124 350.733 533.322 351.666 533.72 352.452C534.127 353.238 534.7 353.844 535.439 354.27C536.178 354.696 537.054 354.909 538.067 354.909C538.739 354.909 539.355 354.814 539.913 354.625C540.472 354.436 540.95 354.152 541.348 353.773C541.746 353.394 542.049 352.93 542.257 352.381L547.854 352.75C547.57 354.095 546.987 355.269 546.107 356.273C545.235 357.267 544.108 358.044 542.726 358.602C541.353 359.152 539.767 359.426 537.967 359.426ZM551.93 359V337.182H557.797V340.989H558.024C558.422 339.634 559.089 338.612 560.027 337.92C560.964 337.22 562.044 336.869 563.266 336.869C563.569 336.869 563.895 336.888 564.246 336.926C564.596 336.964 564.904 337.016 565.169 337.082V342.452C564.885 342.366 564.492 342.291 563.99 342.224C563.488 342.158 563.029 342.125 562.612 342.125C561.722 342.125 560.927 342.319 560.226 342.707C559.535 343.086 558.985 343.616 558.578 344.298C558.18 344.98 557.982 345.766 557.982 346.656V359H551.93Z" fill="#03A9F4"/>
<path d="M634.14 139.172C637.253 125.358 633.408 109.076 614.236 91.4013C583.073 119.61 591.983 148.941 602.293 163.057C602.293 163.057 600.971 171.019 570.446 171.019C539.92 171.019 331.592 171.019 331.592 171.019C331.592 171.019 316.998 298.408 458.981 298.408C583.129 298.408 618.002 202.842 624.809 178.376C627.627 178.758 630.788 179.005 634.14 178.981C651.234 178.846 673.392 169.658 681.911 135.318C659.315 127.492 644.801 131.035 634.14 139.172Z" fill="#03A9F4"/>
<path d="M332.906 202.866C338.758 240.597 363.304 298.408 458.981 298.408C555.995 298.408 598.495 240.048 615.685 202.866H332.906Z" fill="#0288D1"/>
<path d="M473.408 297.914C466.083 295.35 433.025 289.236 427.134 242.675C393.623 257.508 363.933 253.623 350.868 250.701C368.081 276.409 399.992 298.408 458.981 298.408C463.941 298.408 468.726 298.217 473.408 297.914Z" fill="#81D4FA"/>
<path d="M458.981 218.79C454.758 218.79 450.707 220.467 447.721 223.454C444.735 226.44 443.057 230.49 443.057 234.713C443.057 238.937 444.735 242.987 447.721 245.973C450.707 248.959 454.758 250.637 458.981 250.637C463.204 250.637 467.254 248.959 470.241 245.973C473.227 242.987 474.904 238.937 474.904 234.713C474.904 230.49 473.227 226.44 470.241 223.454C467.254 220.467 463.204 218.79 458.981 218.79Z" fill="white"/>
<path d="M434.411 247.428C436.194 251.449 434.57 256.68 430.35 257.922C404.068 265.669 381.417 266.696 364.291 266.696C359.164 261.768 354.785 256.513 351.107 251.067C371.688 251.067 404.53 250.111 423.909 243.376C428.065 241.927 432.627 243.392 434.411 247.428ZM331.592 194.904C331.592 194.904 346.521 195.9 355.478 186.943C370.406 200.382 402.771 195.605 411.21 186.943C419.674 200.382 466.449 197.89 474.904 186.943C484.857 198.392 527.651 200.876 538.599 186.943C542.412 198.575 592.89 201.863 602.293 186.943C610.74 195.605 642.603 202.373 660.502 186.943C664.992 196.401 681.911 194.904 681.911 194.904V202.866H331.592M451.019 234.713C451.019 239.108 454.586 242.675 458.981 242.675C463.376 242.675 466.943 239.108 466.943 234.713C466.943 230.318 463.376 226.752 458.981 226.752C454.586 226.752 451.019 230.318 451.019 234.713Z" fill="#37474F"/>
<path d="M403.248 171.019H363.439V131.21H403.248V171.019ZM482.866 131.21H443.057V171.019H482.866V131.21ZM562.484 131.21H522.675V171.019H562.484V131.21ZM443.057 91.4013H403.248V131.21H443.057V91.4013ZM522.675 91.4013H482.866V131.21H522.675V91.4013Z" fill="#01579B"/>
<path d="M443.057 171.019H403.248V131.21H443.057V171.019ZM522.675 131.21H482.866V171.019H522.675V131.21ZM522.675 51.5923H482.866V91.4013H522.675V51.5923ZM482.866 91.4013H443.057V131.21H482.866V91.4013Z" fill="#0288D1"/>
<path d="M721.675 359H715.085L725.127 329.909H733.053L743.082 359H736.491L729.204 336.557H728.977L721.675 359ZM721.263 347.565H736.832V352.366H721.263V347.565ZM746.469 367.182V337.182H752.435V340.847H752.705C752.97 340.259 753.354 339.663 753.856 339.057C754.367 338.441 755.03 337.93 755.844 337.523C756.668 337.106 757.691 336.898 758.913 336.898C760.504 336.898 761.971 337.314 763.316 338.148C764.661 338.972 765.736 340.217 766.54 341.884C767.345 343.541 767.748 345.619 767.748 348.119C767.748 350.553 767.355 352.608 766.569 354.284C765.792 355.951 764.732 357.215 763.387 358.077C762.052 358.929 760.556 359.355 758.898 359.355C757.724 359.355 756.725 359.161 755.901 358.773C755.087 358.384 754.419 357.897 753.898 357.31C753.378 356.713 752.98 356.112 752.705 355.506H752.521V367.182H746.469ZM752.393 348.091C752.393 349.388 752.573 350.52 752.933 351.486C753.292 352.452 753.813 353.205 754.495 353.744C755.177 354.275 756.005 354.54 756.981 354.54C757.966 354.54 758.799 354.27 759.481 353.73C760.163 353.181 760.679 352.423 761.029 351.457C761.389 350.482 761.569 349.36 761.569 348.091C761.569 346.831 761.394 345.723 761.043 344.767C760.693 343.811 760.177 343.062 759.495 342.523C758.813 341.983 757.975 341.713 756.981 341.713C755.996 341.713 755.163 341.973 754.481 342.494C753.808 343.015 753.292 343.754 752.933 344.71C752.573 345.667 752.393 346.794 752.393 348.091ZM778.004 359.412C776.612 359.412 775.371 359.17 774.282 358.688C773.193 358.195 772.331 357.471 771.697 356.514C771.072 355.548 770.759 354.346 770.759 352.906C770.759 351.694 770.982 350.676 771.427 349.852C771.872 349.028 772.478 348.366 773.245 347.864C774.012 347.362 774.883 346.983 775.859 346.727C776.844 346.472 777.876 346.292 778.955 346.188C780.224 346.055 781.247 345.932 782.023 345.818C782.8 345.695 783.363 345.515 783.714 345.278C784.064 345.042 784.239 344.691 784.239 344.227V344.142C784.239 343.242 783.955 342.546 783.387 342.054C782.828 341.562 782.033 341.315 781.001 341.315C779.912 341.315 779.045 341.557 778.401 342.04C777.757 342.513 777.331 343.11 777.123 343.83L771.526 343.375C771.81 342.049 772.369 340.903 773.202 339.938C774.036 338.962 775.111 338.214 776.427 337.693C777.753 337.163 779.287 336.898 781.029 336.898C782.241 336.898 783.401 337.04 784.509 337.324C785.627 337.608 786.616 338.048 787.478 338.645C788.349 339.241 789.036 340.009 789.538 340.946C790.04 341.874 790.29 342.987 790.29 344.284V359H784.552V355.974H784.381C784.031 356.656 783.562 357.258 782.975 357.778C782.388 358.29 781.683 358.692 780.859 358.986C780.035 359.27 779.083 359.412 778.004 359.412ZM779.737 355.236C780.627 355.236 781.413 355.061 782.094 354.71C782.776 354.35 783.311 353.867 783.7 353.261C784.088 352.655 784.282 351.969 784.282 351.202V348.886C784.093 349.009 783.832 349.123 783.501 349.227C783.179 349.322 782.814 349.412 782.407 349.497C782 349.573 781.593 349.644 781.185 349.71C780.778 349.767 780.409 349.819 780.077 349.866C779.367 349.971 778.747 350.136 778.217 350.364C777.686 350.591 777.274 350.899 776.981 351.287C776.687 351.666 776.54 352.139 776.54 352.707C776.54 353.531 776.839 354.161 777.435 354.597C778.041 355.023 778.808 355.236 779.737 355.236ZM804.843 359.426C802.608 359.426 800.686 358.953 799.076 358.006C797.476 357.049 796.245 355.723 795.383 354.028C794.531 352.333 794.104 350.383 794.104 348.176C794.104 345.941 794.535 343.981 795.397 342.295C796.268 340.6 797.504 339.279 799.104 338.332C800.705 337.376 802.608 336.898 804.815 336.898C806.718 336.898 808.385 337.243 809.815 337.935C811.245 338.626 812.376 339.597 813.21 340.847C814.043 342.097 814.502 343.564 814.587 345.25H808.877C808.716 344.161 808.29 343.285 807.599 342.622C806.917 341.95 806.022 341.614 804.914 341.614C803.977 341.614 803.157 341.869 802.457 342.381C801.765 342.883 801.226 343.616 800.837 344.582C800.449 345.548 800.255 346.718 800.255 348.091C800.255 349.483 800.444 350.667 800.823 351.642C801.211 352.617 801.756 353.361 802.457 353.872C803.157 354.384 803.977 354.639 804.914 354.639C805.605 354.639 806.226 354.497 806.775 354.213C807.334 353.929 807.793 353.517 808.153 352.977C808.522 352.428 808.763 351.77 808.877 351.003H814.587C814.493 352.67 814.038 354.137 813.224 355.406C812.419 356.666 811.306 357.651 809.886 358.361C808.465 359.071 806.784 359.426 804.843 359.426ZM824.513 346.386V359H818.462V329.909H824.342V341.031H824.598C825.09 339.743 825.886 338.735 826.984 338.006C828.083 337.267 829.461 336.898 831.118 336.898C832.633 336.898 833.954 337.229 835.081 337.892C836.217 338.545 837.098 339.488 837.723 340.719C838.357 341.94 838.67 343.403 838.661 345.108V359H832.609V346.188C832.619 344.843 832.278 343.796 831.587 343.048C830.905 342.3 829.948 341.926 828.717 341.926C827.893 341.926 827.164 342.101 826.53 342.452C825.905 342.802 825.412 343.313 825.053 343.986C824.702 344.649 824.522 345.449 824.513 346.386ZM853.366 359.426C851.121 359.426 849.19 358.972 847.57 358.062C845.96 357.144 844.72 355.847 843.849 354.17C842.978 352.485 842.542 350.491 842.542 348.19C842.542 345.946 842.978 343.976 843.849 342.281C844.72 340.586 845.946 339.265 847.528 338.318C849.119 337.371 850.984 336.898 853.124 336.898C854.564 336.898 855.904 337.13 857.144 337.594C858.394 338.048 859.483 338.735 860.411 339.653C861.349 340.572 862.078 341.727 862.599 343.119C863.12 344.502 863.38 346.121 863.38 347.977V349.639H844.957V345.889H857.684C857.684 345.018 857.495 344.246 857.116 343.574C856.737 342.902 856.211 342.376 855.539 341.997C854.876 341.609 854.104 341.415 853.224 341.415C852.305 341.415 851.491 341.628 850.781 342.054C850.08 342.471 849.531 343.034 849.133 343.744C848.735 344.445 848.531 345.226 848.522 346.088V349.653C848.522 350.733 848.721 351.666 849.119 352.452C849.526 353.238 850.099 353.844 850.837 354.27C851.576 354.696 852.452 354.909 853.465 354.909C854.138 354.909 854.753 354.814 855.312 354.625C855.871 354.436 856.349 354.152 856.746 353.773C857.144 353.394 857.447 352.93 857.656 352.381L863.252 352.75C862.968 354.095 862.386 355.269 861.505 356.273C860.634 357.267 859.507 358.044 858.124 358.602C856.751 359.152 855.165 359.426 853.366 359.426ZM876.7 359V329.909H882.851V342.736H883.234L893.703 329.909H901.075L890.28 342.935L901.203 359H893.845L885.876 347.04L882.851 350.733V359H876.7ZM910.386 359.412C908.994 359.412 907.754 359.17 906.665 358.688C905.576 358.195 904.714 357.471 904.08 356.514C903.455 355.548 903.142 354.346 903.142 352.906C903.142 351.694 903.365 350.676 903.81 349.852C904.255 349.028 904.861 348.366 905.628 347.864C906.395 347.362 907.266 346.983 908.241 346.727C909.226 346.472 910.259 346.292 911.338 346.188C912.607 346.055 913.63 345.932 914.406 345.818C915.183 345.695 915.746 345.515 916.097 345.278C916.447 345.042 916.622 344.691 916.622 344.227V344.142C916.622 343.242 916.338 342.546 915.77 342.054C915.211 341.562 914.416 341.315 913.384 341.315C912.295 341.315 911.428 341.557 910.784 342.04C910.14 342.513 909.714 343.11 909.506 343.83L903.909 343.375C904.193 342.049 904.752 340.903 905.585 339.938C906.419 338.962 907.493 338.214 908.81 337.693C910.135 337.163 911.67 336.898 913.412 336.898C914.624 336.898 915.784 337.04 916.892 337.324C918.009 337.608 918.999 338.048 919.861 338.645C920.732 339.241 921.419 340.009 921.92 340.946C922.422 341.874 922.673 342.987 922.673 344.284V359H916.935V355.974H916.764C916.414 356.656 915.945 357.258 915.358 357.778C914.771 358.29 914.065 358.692 913.241 358.986C912.418 359.27 911.466 359.412 910.386 359.412ZM912.119 355.236C913.009 355.236 913.795 355.061 914.477 354.71C915.159 354.35 915.694 353.867 916.082 353.261C916.471 352.655 916.665 351.969 916.665 351.202V348.886C916.475 349.009 916.215 349.123 915.884 349.227C915.562 349.322 915.197 349.412 914.79 349.497C914.383 349.573 913.975 349.644 913.568 349.71C913.161 349.767 912.792 349.819 912.46 349.866C911.75 349.971 911.13 350.136 910.599 350.364C910.069 350.591 909.657 350.899 909.364 351.287C909.07 351.666 908.923 352.139 908.923 352.707C908.923 353.531 909.222 354.161 909.818 354.597C910.424 355.023 911.191 355.236 912.119 355.236ZM939.101 337.182V341.727H925.635V337.182H939.101ZM928.717 359V335.605C928.717 334.024 929.025 332.712 929.641 331.67C930.266 330.629 931.118 329.848 932.197 329.327C933.277 328.806 934.503 328.545 935.876 328.545C936.804 328.545 937.652 328.616 938.419 328.759C939.196 328.901 939.773 329.028 940.152 329.142L939.072 333.688C938.836 333.612 938.542 333.541 938.192 333.474C937.851 333.408 937.5 333.375 937.141 333.375C936.25 333.375 935.63 333.583 935.28 334C934.929 334.407 934.754 334.98 934.754 335.719V359H928.717ZM948.281 352.722L948.295 345.463H949.175L956.164 337.182H963.11L953.721 348.148H952.286L948.281 352.722ZM942.798 359V329.909H948.849V359H942.798ZM956.434 359L950.013 349.497L954.048 345.222L963.522 359H956.434ZM972.3 359.412C970.908 359.412 969.668 359.17 968.579 358.688C967.49 358.195 966.628 357.471 965.994 356.514C965.369 355.548 965.056 354.346 965.056 352.906C965.056 351.694 965.279 350.676 965.724 349.852C966.169 349.028 966.775 348.366 967.542 347.864C968.309 347.362 969.18 346.983 970.156 346.727C971.14 346.472 972.173 346.292 973.252 346.188C974.521 346.055 975.544 345.932 976.32 345.818C977.097 345.695 977.66 345.515 978.011 345.278C978.361 345.042 978.536 344.691 978.536 344.227V344.142C978.536 343.242 978.252 342.546 977.684 342.054C977.125 341.562 976.33 341.315 975.298 341.315C974.209 341.315 973.342 341.557 972.698 342.04C972.054 342.513 971.628 343.11 971.42 343.83L965.823 343.375C966.107 342.049 966.666 340.903 967.499 339.938C968.333 338.962 969.407 338.214 970.724 337.693C972.049 337.163 973.584 336.898 975.326 336.898C976.538 336.898 977.698 337.04 978.806 337.324C979.924 337.608 980.913 338.048 981.775 338.645C982.646 339.241 983.333 340.009 983.835 340.946C984.336 341.874 984.587 342.987 984.587 344.284V359H978.849V355.974H978.678C978.328 356.656 977.859 357.258 977.272 357.778C976.685 358.29 975.979 358.692 975.156 358.986C974.332 359.27 973.38 359.412 972.3 359.412ZM974.033 355.236C974.924 355.236 975.71 355.061 976.391 354.71C977.073 354.35 977.608 353.867 977.996 353.261C978.385 352.655 978.579 351.969 978.579 351.202V348.886C978.389 349.009 978.129 349.123 977.798 349.227C977.476 349.322 977.111 349.412 976.704 349.497C976.297 349.573 975.889 349.644 975.482 349.71C975.075 349.767 974.706 349.819 974.374 349.866C973.664 349.971 973.044 350.136 972.513 350.364C971.983 350.591 971.571 350.899 971.278 351.287C970.984 351.666 970.837 352.139 970.837 352.707C970.837 353.531 971.136 354.161 971.732 354.597C972.338 355.023 973.105 355.236 974.033 355.236Z" fill="#231F20"/>
<g clip-path="url(#clip1_201_6)">
<path d="M895.361 188.351C885.633 188.351 876.913 192.66 870.941 199.445L855.639 188.612C857.263 184.14 858.196 179.338 858.196 174.311C858.196 169.372 857.296 164.65 855.725 160.244L870.993 149.526C876.964 156.276 885.662 160.563 895.361 160.563C913.314 160.563 927.923 145.956 927.923 128C927.923 110.044 913.314 95.4375 895.361 95.4375C877.407 95.4375 862.798 110.044 862.798 128C862.798 131.214 863.284 134.313 864.155 137.248L848.877 147.972C842.495 140.054 833.305 134.526 822.835 132.838V114.425C837.585 111.327 848.699 98.2218 848.699 82.5625C848.699 64.6064 834.09 50 816.136 50C798.183 50 783.574 64.6064 783.574 82.5625C783.574 98.012 794.4 110.956 808.855 114.275V132.927C789.127 136.39 774.077 153.606 774.077 174.311C774.077 195.117 789.276 212.397 809.146 215.742V235.438C794.543 238.647 783.574 251.67 783.574 267.225C783.574 285.181 798.183 299.787 816.136 299.787C834.09 299.787 848.699 285.181 848.699 267.225C848.699 251.67 837.73 238.647 823.127 235.438V215.741C833.184 214.047 842.282 208.755 848.728 200.852L864.132 211.755C863.277 214.663 862.798 217.732 862.798 220.913C862.798 238.87 877.407 253.476 895.361 253.476C913.314 253.476 927.923 238.87 927.923 220.913C927.923 202.957 913.314 188.351 895.361 188.351ZM895.361 112.212C904.067 112.212 911.148 119.296 911.148 128C911.148 136.704 904.067 143.787 895.361 143.787C886.654 143.787 879.573 136.704 879.573 128C879.573 119.296 886.654 112.212 895.361 112.212ZM800.349 82.5625C800.349 73.8588 807.43 66.7752 816.136 66.7752C824.843 66.7752 831.924 73.8588 831.924 82.5625C831.924 91.2662 824.843 98.3498 816.136 98.3498C807.43 98.3498 800.349 91.2662 800.349 82.5625ZM831.924 267.225C831.924 275.928 824.843 283.012 816.136 283.012C807.43 283.012 800.349 275.928 800.349 267.225C800.349 258.521 807.43 251.438 816.136 251.438C824.843 251.438 831.924 258.521 831.924 267.225ZM816.135 196.329C803.993 196.329 794.115 186.453 794.115 174.311C794.115 162.169 803.993 152.291 816.135 152.291C828.277 152.291 838.155 162.169 838.155 174.311C838.155 186.453 828.277 196.329 816.135 196.329ZM895.361 236.701C886.654 236.701 879.573 229.617 879.573 220.913C879.573 212.21 886.654 205.126 895.361 205.126C904.067 205.126 911.148 212.21 911.148 220.913C911.148 229.617 904.067 236.701 895.361 236.701Z" fill="#231F20"/>
</g>
<defs>
<clipPath id="clip0_201_6">
<rect width="250" height="250" fill="white" transform="translate(50 50)"/>
</clipPath>
<clipPath id="clip1_201_6">
<rect width="154" height="250" fill="white" transform="translate(774 50)"/>
</clipPath>
</defs>
</svg>
